<svg viewBox="0 0 318.13928 406" xmlns="http://www.w3.org/2000/svg"><g transform="translate(-105.17143,-48.325604)"> <path d="m 107.34575,452.01115 -2.17432,-2.31445 V 332.51115 215.3256 h 149.83516 149.83516 l 9.23448,31.99291 9.23448,31.9929 -0.62875,1.98101 -0.62875,1.98101 -2.57575,2.02608 -2.57575,2.02609 h -76.36514 -76.36514 v 81.32569 81.32568 l -2.31445,2.17432 -2.31445,2.17431 H 184.53129 109.52006 Z M 105.17143,165.3256 v -29 h 138.43261 138.43261 l 0.51643,1.75 0.51642,1.75 7.55096,26.12692 7.55097,26.12693 v 1.12307 1.12308 h -146.5 -146.5 z m 0,-80.927416 v -31.92742 l 2.63486,-2.07258 2.63486,-2.07258 H 231.75052 353.0599 l 2.48703,2.25 2.48703,2.25 8.71341,30.5 8.71342,30.499996 0.46231,1.25 0.46231,1.25 H 240.77842 105.17143 Z"/></g></svg>
